<mxfile host="app.diagrams.net" agent="Mozilla/5.0 (Windows NT 10.0; Win64; x64) AppleWebKit/537.36 (KHTML, like Gecko) Chrome/128.0.0.0 YaBrowser/24.10.0.0 Safari/537.36" version="24.8.6">
  <diagram name="Страница — 1" id="paIcE8BOBFpO9ypmZAjZ">
    <mxGraphModel dx="2133" dy="1197" grid="1" gridSize="10" guides="1" tooltips="1" connect="1" arrows="1" fold="1" page="1" pageScale="1" pageWidth="1920" pageHeight="1200" math="0" shadow="0">
      <root>
        <mxCell id="0" />
        <mxCell id="1" parent="0" />
        <mxCell id="0v92rCCNr9GchGNWvFpu-1" value="&lt;font style=&quot;font-size: 20px;&quot;&gt;Интеллект-карта&lt;/font&gt;&lt;div style=&quot;font-size: 20px;&quot;&gt;&lt;font style=&quot;font-size: 20px;&quot;&gt;&quot;Конфликты&quot;&lt;/font&gt;&lt;/div&gt;" style="ellipse;whiteSpace=wrap;html=1;" vertex="1" parent="1">
          <mxGeometry x="850" width="220" height="100" as="geometry" />
        </mxCell>
        <mxCell id="0v92rCCNr9GchGNWvFpu-2" value="&lt;div style=&quot;font-size: 14px;&quot;&gt;&lt;span style=&quot;background-color: initial; font-size: 14px;&quot;&gt;Определение&lt;/span&gt;&lt;br style=&quot;font-size: 14px;&quot;&gt;&lt;/div&gt;" style="ellipse;whiteSpace=wrap;html=1;fontSize=14;" vertex="1" parent="1">
          <mxGeometry x="40" y="160" width="160" height="80" as="geometry" />
        </mxCell>
        <mxCell id="0v92rCCNr9GchGNWvFpu-3" value="" style="curved=1;endArrow=classic;html=1;rounded=0;exitX=0;exitY=0.5;exitDx=0;exitDy=0;entryX=0.5;entryY=0;entryDx=0;entryDy=0;" edge="1" parent="1" source="0v92rCCNr9GchGNWvFpu-1" target="0v92rCCNr9GchGNWvFpu-2">
          <mxGeometry width="50" height="50" relative="1" as="geometry">
            <mxPoint x="760" y="460" as="sourcePoint" />
            <mxPoint x="810" y="410" as="targetPoint" />
            <Array as="points">
              <mxPoint x="700" y="40" />
              <mxPoint x="530" y="40" />
              <mxPoint x="430" y="90" />
              <mxPoint x="380" y="70" />
              <mxPoint x="210" y="60" />
            </Array>
          </mxGeometry>
        </mxCell>
        <mxCell id="0v92rCCNr9GchGNWvFpu-4" value="&lt;span style=&quot;background-color: initial; font-size: 14px;&quot;&gt;Структура конфликта&lt;/span&gt;" style="ellipse;whiteSpace=wrap;html=1;fontSize=14;" vertex="1" parent="1">
          <mxGeometry x="280" y="160" width="160" height="80" as="geometry" />
        </mxCell>
        <mxCell id="0v92rCCNr9GchGNWvFpu-5" value="Динамика конфликта" style="ellipse;whiteSpace=wrap;html=1;fontSize=14;" vertex="1" parent="1">
          <mxGeometry x="520" y="160" width="160" height="80" as="geometry" />
        </mxCell>
        <mxCell id="0v92rCCNr9GchGNWvFpu-6" value="Виды конфликтов" style="ellipse;whiteSpace=wrap;html=1;fontSize=14;" vertex="1" parent="1">
          <mxGeometry x="760" y="160" width="160" height="80" as="geometry" />
        </mxCell>
        <mxCell id="0v92rCCNr9GchGNWvFpu-7" value="Методы разрешения конфликтов" style="ellipse;whiteSpace=wrap;html=1;fontSize=14;" vertex="1" parent="1">
          <mxGeometry x="1000" y="160" width="160" height="80" as="geometry" />
        </mxCell>
        <mxCell id="0v92rCCNr9GchGNWvFpu-8" value="Психология конфликтов" style="ellipse;whiteSpace=wrap;html=1;fontSize=14;" vertex="1" parent="1">
          <mxGeometry x="1240" y="160" width="160" height="80" as="geometry" />
        </mxCell>
        <mxCell id="0v92rCCNr9GchGNWvFpu-9" value="Последствия конфликтов" style="ellipse;whiteSpace=wrap;html=1;fontSize=14;" vertex="1" parent="1">
          <mxGeometry x="1480" y="160" width="160" height="80" as="geometry" />
        </mxCell>
        <mxCell id="0v92rCCNr9GchGNWvFpu-10" value="Дополнительные аспекты" style="ellipse;whiteSpace=wrap;html=1;fontSize=14;" vertex="1" parent="1">
          <mxGeometry x="1720" y="160" width="160" height="80" as="geometry" />
        </mxCell>
        <mxCell id="0v92rCCNr9GchGNWvFpu-11" value="Конфликт - это противопоставление интересов, потребностей, мнений и желаний двух или более сторон." style="rounded=1;whiteSpace=wrap;html=1;fontSize=14;" vertex="1" parent="1">
          <mxGeometry x="80" y="280" width="210" height="110" as="geometry" />
        </mxCell>
        <mxCell id="0v92rCCNr9GchGNWvFpu-12" value="" style="curved=1;endArrow=classic;html=1;rounded=0;exitX=0.711;exitY=0.973;exitDx=0;exitDy=0;exitPerimeter=0;entryX=0.75;entryY=0;entryDx=0;entryDy=0;fontSize=14;" edge="1" parent="1" source="0v92rCCNr9GchGNWvFpu-2" target="0v92rCCNr9GchGNWvFpu-11">
          <mxGeometry width="50" height="50" relative="1" as="geometry">
            <mxPoint x="510" y="440" as="sourcePoint" />
            <mxPoint x="560" y="390" as="targetPoint" />
            <Array as="points">
              <mxPoint x="140" y="260" />
              <mxPoint x="170" y="240" />
              <mxPoint x="210" y="230" />
            </Array>
          </mxGeometry>
        </mxCell>
        <mxCell id="0v92rCCNr9GchGNWvFpu-13" value="Стороны конфликта" style="swimlane;fontStyle=0;childLayout=stackLayout;horizontal=1;startSize=30;horizontalStack=0;resizeParent=1;resizeParentMax=0;resizeLast=0;collapsible=1;marginBottom=0;whiteSpace=wrap;html=1;fontSize=14;" vertex="1" parent="1">
          <mxGeometry x="60" y="520" width="180" height="120" as="geometry" />
        </mxCell>
        <mxCell id="0v92rCCNr9GchGNWvFpu-14" value="Индивидуумы" style="text;strokeColor=none;fillColor=none;align=left;verticalAlign=middle;spacingLeft=4;spacingRight=4;overflow=hidden;points=[[0,0.5],[1,0.5]];portConstraint=eastwest;rotatable=0;whiteSpace=wrap;html=1;fontSize=14;" vertex="1" parent="0v92rCCNr9GchGNWvFpu-13">
          <mxGeometry y="30" width="180" height="30" as="geometry" />
        </mxCell>
        <mxCell id="0v92rCCNr9GchGNWvFpu-15" value="Группы" style="text;strokeColor=none;fillColor=none;align=left;verticalAlign=middle;spacingLeft=4;spacingRight=4;overflow=hidden;points=[[0,0.5],[1,0.5]];portConstraint=eastwest;rotatable=0;whiteSpace=wrap;html=1;fontSize=14;" vertex="1" parent="0v92rCCNr9GchGNWvFpu-13">
          <mxGeometry y="60" width="180" height="30" as="geometry" />
        </mxCell>
        <mxCell id="0v92rCCNr9GchGNWvFpu-16" value="Группа и индивидуум" style="text;strokeColor=none;fillColor=none;align=left;verticalAlign=middle;spacingLeft=4;spacingRight=4;overflow=hidden;points=[[0,0.5],[1,0.5]];portConstraint=eastwest;rotatable=0;whiteSpace=wrap;html=1;fontSize=14;" vertex="1" parent="0v92rCCNr9GchGNWvFpu-13">
          <mxGeometry y="90" width="180" height="30" as="geometry" />
        </mxCell>
        <mxCell id="0v92rCCNr9GchGNWvFpu-17" value="Объект конфликта" style="swimlane;fontStyle=0;childLayout=stackLayout;horizontal=1;startSize=30;horizontalStack=0;resizeParent=1;resizeParentMax=0;resizeLast=0;collapsible=1;marginBottom=0;whiteSpace=wrap;html=1;fontSize=14;" vertex="1" parent="1">
          <mxGeometry x="320" y="520" width="140" height="120" as="geometry" />
        </mxCell>
        <mxCell id="0v92rCCNr9GchGNWvFpu-18" value="Ресурсы" style="text;strokeColor=none;fillColor=none;align=left;verticalAlign=middle;spacingLeft=4;spacingRight=4;overflow=hidden;points=[[0,0.5],[1,0.5]];portConstraint=eastwest;rotatable=0;whiteSpace=wrap;html=1;fontSize=14;" vertex="1" parent="0v92rCCNr9GchGNWvFpu-17">
          <mxGeometry y="30" width="140" height="30" as="geometry" />
        </mxCell>
        <mxCell id="0v92rCCNr9GchGNWvFpu-19" value="Права" style="text;strokeColor=none;fillColor=none;align=left;verticalAlign=middle;spacingLeft=4;spacingRight=4;overflow=hidden;points=[[0,0.5],[1,0.5]];portConstraint=eastwest;rotatable=0;whiteSpace=wrap;html=1;fontSize=14;" vertex="1" parent="0v92rCCNr9GchGNWvFpu-17">
          <mxGeometry y="60" width="140" height="30" as="geometry" />
        </mxCell>
        <mxCell id="0v92rCCNr9GchGNWvFpu-20" value="Интересы" style="text;strokeColor=none;fillColor=none;align=left;verticalAlign=middle;spacingLeft=4;spacingRight=4;overflow=hidden;points=[[0,0.5],[1,0.5]];portConstraint=eastwest;rotatable=0;whiteSpace=wrap;html=1;fontSize=14;" vertex="1" parent="0v92rCCNr9GchGNWvFpu-17">
          <mxGeometry y="90" width="140" height="30" as="geometry" />
        </mxCell>
        <mxCell id="0v92rCCNr9GchGNWvFpu-21" value="Контекст" style="swimlane;fontStyle=0;childLayout=stackLayout;horizontal=1;startSize=30;horizontalStack=0;resizeParent=1;resizeParentMax=0;resizeLast=0;collapsible=1;marginBottom=0;whiteSpace=wrap;html=1;fontSize=14;" vertex="1" parent="1">
          <mxGeometry x="210" y="670" width="140" height="150" as="geometry" />
        </mxCell>
        <mxCell id="0v92rCCNr9GchGNWvFpu-22" value="Социальный" style="text;strokeColor=none;fillColor=none;align=left;verticalAlign=middle;spacingLeft=4;spacingRight=4;overflow=hidden;points=[[0,0.5],[1,0.5]];portConstraint=eastwest;rotatable=0;whiteSpace=wrap;html=1;fontSize=14;" vertex="1" parent="0v92rCCNr9GchGNWvFpu-21">
          <mxGeometry y="30" width="140" height="30" as="geometry" />
        </mxCell>
        <mxCell id="0v92rCCNr9GchGNWvFpu-23" value="Экономический" style="text;strokeColor=none;fillColor=none;align=left;verticalAlign=middle;spacingLeft=4;spacingRight=4;overflow=hidden;points=[[0,0.5],[1,0.5]];portConstraint=eastwest;rotatable=0;whiteSpace=wrap;html=1;fontSize=14;" vertex="1" parent="0v92rCCNr9GchGNWvFpu-21">
          <mxGeometry y="60" width="140" height="30" as="geometry" />
        </mxCell>
        <mxCell id="0v92rCCNr9GchGNWvFpu-24" value="Культурный" style="text;strokeColor=none;fillColor=none;align=left;verticalAlign=middle;spacingLeft=4;spacingRight=4;overflow=hidden;points=[[0,0.5],[1,0.5]];portConstraint=eastwest;rotatable=0;whiteSpace=wrap;html=1;fontSize=14;" vertex="1" parent="0v92rCCNr9GchGNWvFpu-21">
          <mxGeometry y="90" width="140" height="30" as="geometry" />
        </mxCell>
        <mxCell id="0v92rCCNr9GchGNWvFpu-27" value="Политический" style="text;strokeColor=none;fillColor=none;align=left;verticalAlign=middle;spacingLeft=4;spacingRight=4;overflow=hidden;points=[[0,0.5],[1,0.5]];portConstraint=eastwest;rotatable=0;whiteSpace=wrap;html=1;fontSize=14;" vertex="1" parent="0v92rCCNr9GchGNWvFpu-21">
          <mxGeometry y="120" width="140" height="30" as="geometry" />
        </mxCell>
        <mxCell id="0v92rCCNr9GchGNWvFpu-28" value="" style="curved=1;endArrow=classic;html=1;rounded=0;exitX=0.225;exitY=0.931;exitDx=0;exitDy=0;entryX=0.5;entryY=0;entryDx=0;entryDy=0;exitPerimeter=0;fontSize=14;" edge="1" parent="1" source="0v92rCCNr9GchGNWvFpu-4" target="0v92rCCNr9GchGNWvFpu-13">
          <mxGeometry width="50" height="50" relative="1" as="geometry">
            <mxPoint x="510" y="600" as="sourcePoint" />
            <mxPoint x="560" y="550" as="targetPoint" />
            <Array as="points">
              <mxPoint x="340" y="360" />
              <mxPoint x="320" y="430" />
              <mxPoint x="200" y="440" />
            </Array>
          </mxGeometry>
        </mxCell>
        <mxCell id="0v92rCCNr9GchGNWvFpu-29" value="" style="curved=1;endArrow=classic;html=1;rounded=0;exitX=0.739;exitY=0.952;exitDx=0;exitDy=0;entryX=0.5;entryY=0;entryDx=0;entryDy=0;exitPerimeter=0;fontSize=14;" edge="1" parent="1" source="0v92rCCNr9GchGNWvFpu-4" target="0v92rCCNr9GchGNWvFpu-17">
          <mxGeometry width="50" height="50" relative="1" as="geometry">
            <mxPoint x="350" y="250" as="sourcePoint" />
            <mxPoint x="180" y="530" as="targetPoint" />
            <Array as="points">
              <mxPoint x="360" y="310" />
              <mxPoint x="420" y="420" />
              <mxPoint x="360" y="460" />
            </Array>
          </mxGeometry>
        </mxCell>
        <mxCell id="0v92rCCNr9GchGNWvFpu-30" value="" style="curved=1;endArrow=classic;html=1;rounded=0;exitX=0.5;exitY=1;exitDx=0;exitDy=0;entryX=0.5;entryY=0;entryDx=0;entryDy=0;fontSize=14;" edge="1" parent="1" source="0v92rCCNr9GchGNWvFpu-4" target="0v92rCCNr9GchGNWvFpu-21">
          <mxGeometry width="50" height="50" relative="1" as="geometry">
            <mxPoint x="379" y="246" as="sourcePoint" />
            <mxPoint x="400" y="530" as="targetPoint" />
            <Array as="points">
              <mxPoint x="350" y="340" />
              <mxPoint x="370" y="430" />
              <mxPoint x="260" y="500" />
            </Array>
          </mxGeometry>
        </mxCell>
        <mxCell id="0v92rCCNr9GchGNWvFpu-31" value="" style="curved=1;endArrow=classic;html=1;rounded=0;exitX=0.045;exitY=0.72;exitDx=0;exitDy=0;entryX=0.364;entryY=0.046;entryDx=0;entryDy=0;exitPerimeter=0;entryPerimeter=0;" edge="1" parent="1" source="0v92rCCNr9GchGNWvFpu-1" target="0v92rCCNr9GchGNWvFpu-4">
          <mxGeometry width="50" height="50" relative="1" as="geometry">
            <mxPoint x="910" y="50" as="sourcePoint" />
            <mxPoint x="110" y="170" as="targetPoint" />
            <Array as="points">
              <mxPoint x="710" y="50" />
              <mxPoint x="520" y="70" />
              <mxPoint x="440" y="130" />
              <mxPoint x="340" y="100" />
            </Array>
          </mxGeometry>
        </mxCell>
        <mxCell id="0v92rCCNr9GchGNWvFpu-32" value="Этапы" style="swimlane;fontStyle=0;childLayout=stackLayout;horizontal=1;startSize=30;horizontalStack=0;resizeParent=1;resizeParentMax=0;resizeLast=0;collapsible=1;marginBottom=0;whiteSpace=wrap;html=1;fontSize=14;" vertex="1" parent="1">
          <mxGeometry x="620" y="290" width="140" height="180" as="geometry" />
        </mxCell>
        <mxCell id="0v92rCCNr9GchGNWvFpu-33" value="Проявление" style="text;strokeColor=none;fillColor=none;align=left;verticalAlign=middle;spacingLeft=4;spacingRight=4;overflow=hidden;points=[[0,0.5],[1,0.5]];portConstraint=eastwest;rotatable=0;whiteSpace=wrap;html=1;fontSize=14;" vertex="1" parent="0v92rCCNr9GchGNWvFpu-32">
          <mxGeometry y="30" width="140" height="30" as="geometry" />
        </mxCell>
        <mxCell id="0v92rCCNr9GchGNWvFpu-34" value="Эскалация" style="text;strokeColor=none;fillColor=none;align=left;verticalAlign=middle;spacingLeft=4;spacingRight=4;overflow=hidden;points=[[0,0.5],[1,0.5]];portConstraint=eastwest;rotatable=0;whiteSpace=wrap;html=1;fontSize=14;" vertex="1" parent="0v92rCCNr9GchGNWvFpu-32">
          <mxGeometry y="60" width="140" height="30" as="geometry" />
        </mxCell>
        <mxCell id="0v92rCCNr9GchGNWvFpu-35" value="Пик" style="text;strokeColor=none;fillColor=none;align=left;verticalAlign=middle;spacingLeft=4;spacingRight=4;overflow=hidden;points=[[0,0.5],[1,0.5]];portConstraint=eastwest;rotatable=0;whiteSpace=wrap;html=1;fontSize=14;" vertex="1" parent="0v92rCCNr9GchGNWvFpu-32">
          <mxGeometry y="90" width="140" height="30" as="geometry" />
        </mxCell>
        <mxCell id="0v92rCCNr9GchGNWvFpu-37" value="Деэскалация" style="text;strokeColor=none;fillColor=none;align=left;verticalAlign=middle;spacingLeft=4;spacingRight=4;overflow=hidden;points=[[0,0.5],[1,0.5]];portConstraint=eastwest;rotatable=0;whiteSpace=wrap;html=1;fontSize=14;" vertex="1" parent="0v92rCCNr9GchGNWvFpu-32">
          <mxGeometry y="120" width="140" height="30" as="geometry" />
        </mxCell>
        <mxCell id="0v92rCCNr9GchGNWvFpu-36" value="Результат" style="text;strokeColor=none;fillColor=none;align=left;verticalAlign=middle;spacingLeft=4;spacingRight=4;overflow=hidden;points=[[0,0.5],[1,0.5]];portConstraint=eastwest;rotatable=0;whiteSpace=wrap;html=1;fontSize=14;" vertex="1" parent="0v92rCCNr9GchGNWvFpu-32">
          <mxGeometry y="150" width="140" height="30" as="geometry" />
        </mxCell>
        <mxCell id="0v92rCCNr9GchGNWvFpu-38" value="Факторы влияния" style="swimlane;fontStyle=0;childLayout=stackLayout;horizontal=1;startSize=30;horizontalStack=0;resizeParent=1;resizeParentMax=0;resizeLast=0;collapsible=1;marginBottom=0;whiteSpace=wrap;html=1;fontSize=14;" vertex="1" parent="1">
          <mxGeometry x="430" y="365" width="170" height="120" as="geometry">
            <mxRectangle x="430" y="365" width="150" height="30" as="alternateBounds" />
          </mxGeometry>
        </mxCell>
        <mxCell id="0v92rCCNr9GchGNWvFpu-39" value="Коммуникация" style="text;strokeColor=none;fillColor=none;align=left;verticalAlign=middle;spacingLeft=4;spacingRight=4;overflow=hidden;points=[[0,0.5],[1,0.5]];portConstraint=eastwest;rotatable=0;whiteSpace=wrap;html=1;fontSize=14;" vertex="1" parent="0v92rCCNr9GchGNWvFpu-38">
          <mxGeometry y="30" width="170" height="30" as="geometry" />
        </mxCell>
        <mxCell id="0v92rCCNr9GchGNWvFpu-40" value="Эмоции" style="text;strokeColor=none;fillColor=none;align=left;verticalAlign=middle;spacingLeft=4;spacingRight=4;overflow=hidden;points=[[0,0.5],[1,0.5]];portConstraint=eastwest;rotatable=0;whiteSpace=wrap;html=1;fontSize=14;" vertex="1" parent="0v92rCCNr9GchGNWvFpu-38">
          <mxGeometry y="60" width="170" height="30" as="geometry" />
        </mxCell>
        <mxCell id="0v92rCCNr9GchGNWvFpu-41" value="Внешние обстоятельства" style="text;strokeColor=none;fillColor=none;align=left;verticalAlign=middle;spacingLeft=4;spacingRight=4;overflow=hidden;points=[[0,0.5],[1,0.5]];portConstraint=eastwest;rotatable=0;whiteSpace=wrap;html=1;fontSize=13;" vertex="1" parent="0v92rCCNr9GchGNWvFpu-38">
          <mxGeometry y="90" width="170" height="30" as="geometry" />
        </mxCell>
        <mxCell id="0v92rCCNr9GchGNWvFpu-42" value="" style="curved=1;endArrow=classic;html=1;rounded=0;entryX=0.5;entryY=0;entryDx=0;entryDy=0;exitX=0.357;exitY=0.973;exitDx=0;exitDy=0;exitPerimeter=0;fontSize=14;" edge="1" parent="1" source="0v92rCCNr9GchGNWvFpu-5" target="0v92rCCNr9GchGNWvFpu-38">
          <mxGeometry width="50" height="50" relative="1" as="geometry">
            <mxPoint x="510" y="520" as="sourcePoint" />
            <mxPoint x="560" y="470" as="targetPoint" />
            <Array as="points">
              <mxPoint x="540" y="260" />
              <mxPoint x="470" y="300" />
            </Array>
          </mxGeometry>
        </mxCell>
        <mxCell id="0v92rCCNr9GchGNWvFpu-43" value="" style="curved=1;endArrow=classic;html=1;rounded=0;entryX=0.592;entryY=0.002;entryDx=0;entryDy=0;exitX=0.5;exitY=1;exitDx=0;exitDy=0;entryPerimeter=0;fontSize=14;" edge="1" parent="1" source="0v92rCCNr9GchGNWvFpu-5" target="0v92rCCNr9GchGNWvFpu-32">
          <mxGeometry width="50" height="50" relative="1" as="geometry">
            <mxPoint x="573" y="248" as="sourcePoint" />
            <mxPoint x="510" y="375" as="targetPoint" />
            <Array as="points">
              <mxPoint x="580" y="250" />
              <mxPoint x="660" y="250" />
            </Array>
          </mxGeometry>
        </mxCell>
        <mxCell id="0v92rCCNr9GchGNWvFpu-44" value="" style="curved=1;endArrow=classic;html=1;rounded=0;entryX=0.5;entryY=0;entryDx=0;entryDy=0;exitX=0;exitY=1;exitDx=0;exitDy=0;" edge="1" parent="1" source="0v92rCCNr9GchGNWvFpu-1" target="0v92rCCNr9GchGNWvFpu-5">
          <mxGeometry width="50" height="50" relative="1" as="geometry">
            <mxPoint x="510" y="520" as="sourcePoint" />
            <mxPoint x="560" y="470" as="targetPoint" />
            <Array as="points">
              <mxPoint x="830" y="110" />
              <mxPoint x="660" y="80" />
            </Array>
          </mxGeometry>
        </mxCell>
        <mxCell id="0v92rCCNr9GchGNWvFpu-46" value="По источнику" style="swimlane;fontStyle=0;childLayout=stackLayout;horizontal=1;startSize=30;horizontalStack=0;resizeParent=1;resizeParentMax=0;resizeLast=0;collapsible=1;marginBottom=0;whiteSpace=wrap;html=1;" vertex="1" parent="1">
          <mxGeometry x="620" y="500" width="140" height="90" as="geometry" />
        </mxCell>
        <mxCell id="0v92rCCNr9GchGNWvFpu-47" value="Внутренние" style="text;strokeColor=none;fillColor=none;align=left;verticalAlign=middle;spacingLeft=4;spacingRight=4;overflow=hidden;points=[[0,0.5],[1,0.5]];portConstraint=eastwest;rotatable=0;whiteSpace=wrap;html=1;" vertex="1" parent="0v92rCCNr9GchGNWvFpu-46">
          <mxGeometry y="30" width="140" height="30" as="geometry" />
        </mxCell>
        <mxCell id="0v92rCCNr9GchGNWvFpu-48" value="Внешние" style="text;strokeColor=none;fillColor=none;align=left;verticalAlign=middle;spacingLeft=4;spacingRight=4;overflow=hidden;points=[[0,0.5],[1,0.5]];portConstraint=eastwest;rotatable=0;whiteSpace=wrap;html=1;" vertex="1" parent="0v92rCCNr9GchGNWvFpu-46">
          <mxGeometry y="60" width="140" height="30" as="geometry" />
        </mxCell>
        <mxCell id="0v92rCCNr9GchGNWvFpu-50" value="По объекту" style="swimlane;fontStyle=0;childLayout=stackLayout;horizontal=1;startSize=30;horizontalStack=0;resizeParent=1;resizeParentMax=0;resizeLast=0;collapsible=1;marginBottom=0;whiteSpace=wrap;html=1;fontSize=14;" vertex="1" parent="1">
          <mxGeometry x="880" y="280" width="140" height="120" as="geometry" />
        </mxCell>
        <mxCell id="0v92rCCNr9GchGNWvFpu-51" value="Конфликт интересов" style="text;strokeColor=none;fillColor=none;align=left;verticalAlign=middle;spacingLeft=4;spacingRight=4;overflow=hidden;points=[[0,0.5],[1,0.5]];portConstraint=eastwest;rotatable=0;whiteSpace=wrap;html=1;fontSize=13;" vertex="1" parent="0v92rCCNr9GchGNWvFpu-50">
          <mxGeometry y="30" width="140" height="30" as="geometry" />
        </mxCell>
        <mxCell id="0v92rCCNr9GchGNWvFpu-52" value="Конфликт стилей" style="text;strokeColor=none;fillColor=none;align=left;verticalAlign=middle;spacingLeft=4;spacingRight=4;overflow=hidden;points=[[0,0.5],[1,0.5]];portConstraint=eastwest;rotatable=0;whiteSpace=wrap;html=1;fontSize=13;" vertex="1" parent="0v92rCCNr9GchGNWvFpu-50">
          <mxGeometry y="60" width="140" height="30" as="geometry" />
        </mxCell>
        <mxCell id="0v92rCCNr9GchGNWvFpu-53" value="Конфликт ценностей" style="text;strokeColor=none;fillColor=none;align=left;verticalAlign=middle;spacingLeft=4;spacingRight=4;overflow=hidden;points=[[0,0.5],[1,0.5]];portConstraint=eastwest;rotatable=0;whiteSpace=wrap;html=1;fontSize=13;" vertex="1" parent="0v92rCCNr9GchGNWvFpu-50">
          <mxGeometry y="90" width="140" height="30" as="geometry" />
        </mxCell>
        <mxCell id="0v92rCCNr9GchGNWvFpu-54" value="По уровню" style="swimlane;fontStyle=0;childLayout=stackLayout;horizontal=1;startSize=30;horizontalStack=0;resizeParent=1;resizeParentMax=0;resizeLast=0;collapsible=1;marginBottom=0;whiteSpace=wrap;html=1;fontSize=14;" vertex="1" parent="1">
          <mxGeometry x="870" y="430" width="140" height="120" as="geometry" />
        </mxCell>
        <mxCell id="0v92rCCNr9GchGNWvFpu-55" value="Личностные" style="text;strokeColor=none;fillColor=none;align=left;verticalAlign=middle;spacingLeft=4;spacingRight=4;overflow=hidden;points=[[0,0.5],[1,0.5]];portConstraint=eastwest;rotatable=0;whiteSpace=wrap;html=1;fontSize=13;" vertex="1" parent="0v92rCCNr9GchGNWvFpu-54">
          <mxGeometry y="30" width="140" height="30" as="geometry" />
        </mxCell>
        <mxCell id="0v92rCCNr9GchGNWvFpu-56" value="Групповые" style="text;strokeColor=none;fillColor=none;align=left;verticalAlign=middle;spacingLeft=4;spacingRight=4;overflow=hidden;points=[[0,0.5],[1,0.5]];portConstraint=eastwest;rotatable=0;whiteSpace=wrap;html=1;fontSize=13;" vertex="1" parent="0v92rCCNr9GchGNWvFpu-54">
          <mxGeometry y="60" width="140" height="30" as="geometry" />
        </mxCell>
        <mxCell id="0v92rCCNr9GchGNWvFpu-57" value="Социальные" style="text;strokeColor=none;fillColor=none;align=left;verticalAlign=middle;spacingLeft=4;spacingRight=4;overflow=hidden;points=[[0,0.5],[1,0.5]];portConstraint=eastwest;rotatable=0;whiteSpace=wrap;html=1;fontSize=13;" vertex="1" parent="0v92rCCNr9GchGNWvFpu-54">
          <mxGeometry y="90" width="140" height="30" as="geometry" />
        </mxCell>
        <mxCell id="0v92rCCNr9GchGNWvFpu-58" value="По характеру" style="swimlane;fontStyle=0;childLayout=stackLayout;horizontal=1;startSize=30;horizontalStack=0;resizeParent=1;resizeParentMax=0;resizeLast=0;collapsible=1;marginBottom=0;whiteSpace=wrap;html=1;" vertex="1" parent="1">
          <mxGeometry x="650" y="620" width="140" height="90" as="geometry" />
        </mxCell>
        <mxCell id="0v92rCCNr9GchGNWvFpu-59" value="Открытые" style="text;strokeColor=none;fillColor=none;align=left;verticalAlign=middle;spacingLeft=4;spacingRight=4;overflow=hidden;points=[[0,0.5],[1,0.5]];portConstraint=eastwest;rotatable=0;whiteSpace=wrap;html=1;" vertex="1" parent="0v92rCCNr9GchGNWvFpu-58">
          <mxGeometry y="30" width="140" height="30" as="geometry" />
        </mxCell>
        <mxCell id="0v92rCCNr9GchGNWvFpu-60" value="Скрытые" style="text;strokeColor=none;fillColor=none;align=left;verticalAlign=middle;spacingLeft=4;spacingRight=4;overflow=hidden;points=[[0,0.5],[1,0.5]];portConstraint=eastwest;rotatable=0;whiteSpace=wrap;html=1;" vertex="1" parent="0v92rCCNr9GchGNWvFpu-58">
          <mxGeometry y="60" width="140" height="30" as="geometry" />
        </mxCell>
        <mxCell id="0v92rCCNr9GchGNWvFpu-62" value="" style="curved=1;endArrow=classic;html=1;rounded=0;exitX=0.245;exitY=0.926;exitDx=0;exitDy=0;exitPerimeter=0;entryX=1.002;entryY=0.133;entryDx=0;entryDy=0;entryPerimeter=0;" edge="1" parent="1" source="0v92rCCNr9GchGNWvFpu-6" target="0v92rCCNr9GchGNWvFpu-46">
          <mxGeometry width="50" height="50" relative="1" as="geometry">
            <mxPoint x="890" y="660" as="sourcePoint" />
            <mxPoint x="940" y="610" as="targetPoint" />
            <Array as="points">
              <mxPoint x="780" y="360" />
              <mxPoint x="810" y="470" />
            </Array>
          </mxGeometry>
        </mxCell>
        <mxCell id="0v92rCCNr9GchGNWvFpu-63" value="" style="curved=1;endArrow=classic;html=1;rounded=0;exitX=0.359;exitY=0.974;exitDx=0;exitDy=0;exitPerimeter=0;entryX=1.014;entryY=0.152;entryDx=0;entryDy=0;entryPerimeter=0;" edge="1" parent="1" source="0v92rCCNr9GchGNWvFpu-6" target="0v92rCCNr9GchGNWvFpu-58">
          <mxGeometry width="50" height="50" relative="1" as="geometry">
            <mxPoint x="890" y="660" as="sourcePoint" />
            <mxPoint x="940" y="610" as="targetPoint" />
            <Array as="points">
              <mxPoint x="790" y="350" />
              <mxPoint x="830" y="430" />
              <mxPoint x="780" y="550" />
            </Array>
          </mxGeometry>
        </mxCell>
        <mxCell id="0v92rCCNr9GchGNWvFpu-64" value="" style="curved=1;endArrow=classic;html=1;rounded=0;exitX=0.681;exitY=0.95;exitDx=0;exitDy=0;exitPerimeter=0;entryX=0.432;entryY=-0.012;entryDx=0;entryDy=0;entryPerimeter=0;" edge="1" parent="1" source="0v92rCCNr9GchGNWvFpu-6" target="0v92rCCNr9GchGNWvFpu-50">
          <mxGeometry width="50" height="50" relative="1" as="geometry">
            <mxPoint x="920" y="400" as="sourcePoint" />
            <mxPoint x="970" y="350" as="targetPoint" />
            <Array as="points">
              <mxPoint x="920" y="240" />
            </Array>
          </mxGeometry>
        </mxCell>
        <mxCell id="0v92rCCNr9GchGNWvFpu-65" value="" style="curved=1;endArrow=classic;html=1;rounded=0;exitX=0.455;exitY=0.996;exitDx=0;exitDy=0;exitPerimeter=0;entryX=-0.012;entryY=0.133;entryDx=0;entryDy=0;entryPerimeter=0;" edge="1" parent="1" source="0v92rCCNr9GchGNWvFpu-6" target="0v92rCCNr9GchGNWvFpu-54">
          <mxGeometry width="50" height="50" relative="1" as="geometry">
            <mxPoint x="920" y="400" as="sourcePoint" />
            <mxPoint x="970" y="350" as="targetPoint" />
            <Array as="points">
              <mxPoint x="850" y="310" />
              <mxPoint x="820" y="420" />
            </Array>
          </mxGeometry>
        </mxCell>
        <mxCell id="0v92rCCNr9GchGNWvFpu-66" value="" style="curved=1;endArrow=classic;html=1;rounded=0;entryX=0.5;entryY=0;entryDx=0;entryDy=0;exitX=0.21;exitY=0.926;exitDx=0;exitDy=0;exitPerimeter=0;" edge="1" parent="1" source="0v92rCCNr9GchGNWvFpu-1" target="0v92rCCNr9GchGNWvFpu-6">
          <mxGeometry width="50" height="50" relative="1" as="geometry">
            <mxPoint x="930" y="420" as="sourcePoint" />
            <mxPoint x="980" y="370" as="targetPoint" />
            <Array as="points">
              <mxPoint x="880" y="110" />
              <mxPoint x="830" y="110" />
            </Array>
          </mxGeometry>
        </mxCell>
        <mxCell id="0v92rCCNr9GchGNWvFpu-71" value="" style="curved=1;endArrow=classic;html=1;rounded=0;exitX=0.5;exitY=1;exitDx=0;exitDy=0;entryX=0.5;entryY=0;entryDx=0;entryDy=0;" edge="1" parent="1" source="0v92rCCNr9GchGNWvFpu-7">
          <mxGeometry width="50" height="50" relative="1" as="geometry">
            <mxPoint x="1080" y="490" as="sourcePoint" />
            <mxPoint x="950" y="620" as="targetPoint" />
            <Array as="points">
              <mxPoint x="1030" y="340" />
              <mxPoint x="1040" y="550" />
              <mxPoint x="970" y="580" />
            </Array>
          </mxGeometry>
        </mxCell>
        <mxCell id="0v92rCCNr9GchGNWvFpu-72" value="" style="curved=1;endArrow=classic;html=1;rounded=0;exitX=0.412;exitY=1.004;exitDx=0;exitDy=0;exitPerimeter=0;entryX=0.5;entryY=0;entryDx=0;entryDy=0;" edge="1" parent="1" source="0v92rCCNr9GchGNWvFpu-1" target="0v92rCCNr9GchGNWvFpu-7">
          <mxGeometry width="50" height="50" relative="1" as="geometry">
            <mxPoint x="1080" y="490" as="sourcePoint" />
            <mxPoint x="1130" y="440" as="targetPoint" />
            <Array as="points">
              <mxPoint x="950" y="140" />
              <mxPoint x="1030" y="120" />
            </Array>
          </mxGeometry>
        </mxCell>
        <mxCell id="0v92rCCNr9GchGNWvFpu-73" value="Роли сторон" style="swimlane;fontStyle=0;childLayout=stackLayout;horizontal=1;startSize=30;horizontalStack=0;resizeParent=1;resizeParentMax=0;resizeLast=0;collapsible=1;marginBottom=0;whiteSpace=wrap;html=1;fontSize=14;" vertex="1" parent="1">
          <mxGeometry x="1130" y="340" width="140" height="120" as="geometry" />
        </mxCell>
        <mxCell id="0v92rCCNr9GchGNWvFpu-74" value="Участник" style="text;strokeColor=none;fillColor=none;align=left;verticalAlign=middle;spacingLeft=4;spacingRight=4;overflow=hidden;points=[[0,0.5],[1,0.5]];portConstraint=eastwest;rotatable=0;whiteSpace=wrap;html=1;fontSize=13;" vertex="1" parent="0v92rCCNr9GchGNWvFpu-73">
          <mxGeometry y="30" width="140" height="30" as="geometry" />
        </mxCell>
        <mxCell id="0v92rCCNr9GchGNWvFpu-75" value="Наблюдатель" style="text;strokeColor=none;fillColor=none;align=left;verticalAlign=middle;spacingLeft=4;spacingRight=4;overflow=hidden;points=[[0,0.5],[1,0.5]];portConstraint=eastwest;rotatable=0;whiteSpace=wrap;html=1;fontSize=13;" vertex="1" parent="0v92rCCNr9GchGNWvFpu-73">
          <mxGeometry y="60" width="140" height="30" as="geometry" />
        </mxCell>
        <mxCell id="0v92rCCNr9GchGNWvFpu-76" value="Посредник" style="text;strokeColor=none;fillColor=none;align=left;verticalAlign=middle;spacingLeft=4;spacingRight=4;overflow=hidden;points=[[0,0.5],[1,0.5]];portConstraint=eastwest;rotatable=0;whiteSpace=wrap;html=1;fontSize=13;" vertex="1" parent="0v92rCCNr9GchGNWvFpu-73">
          <mxGeometry y="90" width="140" height="30" as="geometry" />
        </mxCell>
        <mxCell id="0v92rCCNr9GchGNWvFpu-77" value="Стратегии поведения" style="swimlane;fontStyle=0;childLayout=stackLayout;horizontal=1;startSize=30;horizontalStack=0;resizeParent=1;resizeParentMax=0;resizeLast=0;collapsible=1;marginBottom=0;whiteSpace=wrap;html=1;fontSize=14;" vertex="1" parent="1">
          <mxGeometry x="1220" y="510" width="160" height="120" as="geometry" />
        </mxCell>
        <mxCell id="0v92rCCNr9GchGNWvFpu-78" value="Конкуренция" style="text;strokeColor=none;fillColor=none;align=left;verticalAlign=middle;spacingLeft=4;spacingRight=4;overflow=hidden;points=[[0,0.5],[1,0.5]];portConstraint=eastwest;rotatable=0;whiteSpace=wrap;html=1;fontSize=13;" vertex="1" parent="0v92rCCNr9GchGNWvFpu-77">
          <mxGeometry y="30" width="160" height="30" as="geometry" />
        </mxCell>
        <mxCell id="0v92rCCNr9GchGNWvFpu-79" value="Сотрудничество" style="text;strokeColor=none;fillColor=none;align=left;verticalAlign=middle;spacingLeft=4;spacingRight=4;overflow=hidden;points=[[0,0.5],[1,0.5]];portConstraint=eastwest;rotatable=0;whiteSpace=wrap;html=1;fontSize=13;" vertex="1" parent="0v92rCCNr9GchGNWvFpu-77">
          <mxGeometry y="60" width="160" height="30" as="geometry" />
        </mxCell>
        <mxCell id="0v92rCCNr9GchGNWvFpu-80" value="Избежание" style="text;strokeColor=none;fillColor=none;align=left;verticalAlign=middle;spacingLeft=4;spacingRight=4;overflow=hidden;points=[[0,0.5],[1,0.5]];portConstraint=eastwest;rotatable=0;whiteSpace=wrap;html=1;fontSize=13;" vertex="1" parent="0v92rCCNr9GchGNWvFpu-77">
          <mxGeometry y="90" width="160" height="30" as="geometry" />
        </mxCell>
        <mxCell id="0v92rCCNr9GchGNWvFpu-81" value="" style="curved=1;endArrow=classic;html=1;rounded=0;exitX=0.203;exitY=0.909;exitDx=0;exitDy=0;exitPerimeter=0;entryX=0.5;entryY=0;entryDx=0;entryDy=0;" edge="1" parent="1" source="0v92rCCNr9GchGNWvFpu-8" target="0v92rCCNr9GchGNWvFpu-73">
          <mxGeometry width="50" height="50" relative="1" as="geometry">
            <mxPoint x="1090" y="380" as="sourcePoint" />
            <mxPoint x="1140" y="330" as="targetPoint" />
            <Array as="points">
              <mxPoint x="1260" y="270" />
              <mxPoint x="1200" y="290" />
            </Array>
          </mxGeometry>
        </mxCell>
        <mxCell id="0v92rCCNr9GchGNWvFpu-82" value="" style="curved=1;endArrow=classic;html=1;rounded=0;exitX=0.5;exitY=1;exitDx=0;exitDy=0;entryX=0.5;entryY=0;entryDx=0;entryDy=0;" edge="1" parent="1" source="0v92rCCNr9GchGNWvFpu-8" target="0v92rCCNr9GchGNWvFpu-77">
          <mxGeometry width="50" height="50" relative="1" as="geometry">
            <mxPoint x="1090" y="380" as="sourcePoint" />
            <mxPoint x="1140" y="330" as="targetPoint" />
            <Array as="points">
              <mxPoint x="1260" y="340" />
              <mxPoint x="1370" y="350" />
            </Array>
          </mxGeometry>
        </mxCell>
        <mxCell id="0v92rCCNr9GchGNWvFpu-83" value="" style="curved=1;endArrow=classic;html=1;rounded=0;exitX=0.712;exitY=0.95;exitDx=0;exitDy=0;exitPerimeter=0;entryX=0.401;entryY=-0.014;entryDx=0;entryDy=0;entryPerimeter=0;" edge="1" parent="1" source="0v92rCCNr9GchGNWvFpu-1" target="0v92rCCNr9GchGNWvFpu-8">
          <mxGeometry width="50" height="50" relative="1" as="geometry">
            <mxPoint x="1090" y="380" as="sourcePoint" />
            <mxPoint x="1140" y="330" as="targetPoint" />
            <Array as="points">
              <mxPoint x="1090" y="150" />
              <mxPoint x="1200" y="90" />
            </Array>
          </mxGeometry>
        </mxCell>
        <mxCell id="0v92rCCNr9GchGNWvFpu-85" value="Переговоры" style="rounded=1;whiteSpace=wrap;html=1;fontSize=14;" vertex="1" parent="1">
          <mxGeometry x="880" y="620" width="120" height="60" as="geometry" />
        </mxCell>
        <mxCell id="0v92rCCNr9GchGNWvFpu-86" value="Тренинг навыков общения" style="rounded=1;whiteSpace=wrap;html=1;fontSize=14;" vertex="1" parent="1">
          <mxGeometry x="1050" y="760" width="120" height="60" as="geometry" />
        </mxCell>
        <mxCell id="0v92rCCNr9GchGNWvFpu-87" value="Консультация" style="rounded=1;whiteSpace=wrap;html=1;fontSize=14;" vertex="1" parent="1">
          <mxGeometry x="1090" y="650" width="120" height="60" as="geometry" />
        </mxCell>
        <mxCell id="0v92rCCNr9GchGNWvFpu-88" value="Арбитраж" style="rounded=1;whiteSpace=wrap;html=1;fontSize=14;" vertex="1" parent="1">
          <mxGeometry x="900" y="715" width="120" height="60" as="geometry" />
        </mxCell>
        <mxCell id="0v92rCCNr9GchGNWvFpu-89" value="Медитация" style="rounded=1;whiteSpace=wrap;html=1;fontSize=14;" vertex="1" parent="1">
          <mxGeometry x="1080" y="520" width="120" height="60" as="geometry" />
        </mxCell>
        <mxCell id="0v92rCCNr9GchGNWvFpu-90" value="" style="curved=1;endArrow=classic;html=1;rounded=0;entryX=0.75;entryY=0;entryDx=0;entryDy=0;" edge="1" parent="1" target="0v92rCCNr9GchGNWvFpu-88">
          <mxGeometry width="50" height="50" relative="1" as="geometry">
            <mxPoint x="1030" y="530" as="sourcePoint" />
            <mxPoint x="1060" y="560" as="targetPoint" />
            <Array as="points">
              <mxPoint x="1010" y="590" />
              <mxPoint x="1030" y="660" />
            </Array>
          </mxGeometry>
        </mxCell>
        <mxCell id="0v92rCCNr9GchGNWvFpu-91" value="" style="curved=1;endArrow=classic;html=1;rounded=0;entryX=0.356;entryY=-0.006;entryDx=0;entryDy=0;entryPerimeter=0;exitX=0.5;exitY=1;exitDx=0;exitDy=0;" edge="1" parent="1" source="0v92rCCNr9GchGNWvFpu-7" target="0v92rCCNr9GchGNWvFpu-86">
          <mxGeometry width="50" height="50" relative="1" as="geometry">
            <mxPoint x="1010" y="610" as="sourcePoint" />
            <mxPoint x="1060" y="560" as="targetPoint" />
            <Array as="points">
              <mxPoint x="1050" y="360" />
              <mxPoint x="1050" y="450" />
              <mxPoint x="1050" y="570" />
              <mxPoint x="1020" y="680" />
            </Array>
          </mxGeometry>
        </mxCell>
        <mxCell id="0v92rCCNr9GchGNWvFpu-93" value="" style="curved=1;endArrow=classic;html=1;rounded=0;entryX=0.5;entryY=0;entryDx=0;entryDy=0;" edge="1" parent="1" target="0v92rCCNr9GchGNWvFpu-87">
          <mxGeometry width="50" height="50" relative="1" as="geometry">
            <mxPoint x="1050" y="500" as="sourcePoint" />
            <mxPoint x="1060" y="560" as="targetPoint" />
            <Array as="points">
              <mxPoint x="1050" y="620" />
              <mxPoint x="1120" y="620" />
            </Array>
          </mxGeometry>
        </mxCell>
        <mxCell id="0v92rCCNr9GchGNWvFpu-94" value="" style="curved=1;endArrow=classic;html=1;rounded=0;exitX=0.5;exitY=1;exitDx=0;exitDy=0;entryX=0.5;entryY=0;entryDx=0;entryDy=0;" edge="1" parent="1" source="0v92rCCNr9GchGNWvFpu-7" target="0v92rCCNr9GchGNWvFpu-89">
          <mxGeometry width="50" height="50" relative="1" as="geometry">
            <mxPoint x="1010" y="610" as="sourcePoint" />
            <mxPoint x="1060" y="560" as="targetPoint" />
            <Array as="points">
              <mxPoint x="1080" y="370" />
              <mxPoint x="1060" y="470" />
              <mxPoint x="1120" y="470" />
            </Array>
          </mxGeometry>
        </mxCell>
        <mxCell id="0v92rCCNr9GchGNWvFpu-95" value="" style="curved=1;endArrow=classic;html=1;rounded=0;exitX=0.894;exitY=0.826;exitDx=0;exitDy=0;exitPerimeter=0;entryX=0.403;entryY=-0.01;entryDx=0;entryDy=0;entryPerimeter=0;" edge="1" parent="1" source="0v92rCCNr9GchGNWvFpu-1" target="0v92rCCNr9GchGNWvFpu-9">
          <mxGeometry width="50" height="50" relative="1" as="geometry">
            <mxPoint x="1210" y="510" as="sourcePoint" />
            <mxPoint x="1260" y="460" as="targetPoint" />
            <Array as="points">
              <mxPoint x="1220" y="50" />
              <mxPoint x="1360" y="170" />
              <mxPoint x="1470" y="110" />
            </Array>
          </mxGeometry>
        </mxCell>
        <mxCell id="0v92rCCNr9GchGNWvFpu-96" value="&lt;font style=&quot;font-size: 13px;&quot;&gt;Положительные&lt;/font&gt;" style="swimlane;fontStyle=0;childLayout=stackLayout;horizontal=1;startSize=30;horizontalStack=0;resizeParent=1;resizeParentMax=0;resizeLast=0;collapsible=1;marginBottom=0;whiteSpace=wrap;html=1;" vertex="1" parent="1">
          <mxGeometry x="1370" y="300" width="160" height="90" as="geometry" />
        </mxCell>
        <mxCell id="0v92rCCNr9GchGNWvFpu-97" value="Улучшение отношений" style="text;strokeColor=none;fillColor=none;align=left;verticalAlign=middle;spacingLeft=4;spacingRight=4;overflow=hidden;points=[[0,0.5],[1,0.5]];portConstraint=eastwest;rotatable=0;whiteSpace=wrap;html=1;fontSize=14;" vertex="1" parent="0v92rCCNr9GchGNWvFpu-96">
          <mxGeometry y="30" width="160" height="30" as="geometry" />
        </mxCell>
        <mxCell id="0v92rCCNr9GchGNWvFpu-98" value="&lt;font style=&quot;font-size: 13px;&quot;&gt;Повышение понимания&lt;/font&gt;" style="text;strokeColor=none;fillColor=none;align=left;verticalAlign=middle;spacingLeft=4;spacingRight=4;overflow=hidden;points=[[0,0.5],[1,0.5]];portConstraint=eastwest;rotatable=0;whiteSpace=wrap;html=1;" vertex="1" parent="0v92rCCNr9GchGNWvFpu-96">
          <mxGeometry y="60" width="160" height="30" as="geometry" />
        </mxCell>
        <mxCell id="0v92rCCNr9GchGNWvFpu-100" value="Отрицательные" style="swimlane;fontStyle=0;childLayout=stackLayout;horizontal=1;startSize=30;horizontalStack=0;resizeParent=1;resizeParentMax=0;resizeLast=0;collapsible=1;marginBottom=0;whiteSpace=wrap;html=1;fontSize=14;" vertex="1" parent="1">
          <mxGeometry x="1450" y="445" width="160" height="90" as="geometry" />
        </mxCell>
        <mxCell id="0v92rCCNr9GchGNWvFpu-101" value="Разрушение отношений" style="text;strokeColor=none;fillColor=none;align=left;verticalAlign=middle;spacingLeft=4;spacingRight=4;overflow=hidden;points=[[0,0.5],[1,0.5]];portConstraint=eastwest;rotatable=0;whiteSpace=wrap;html=1;fontSize=13;" vertex="1" parent="0v92rCCNr9GchGNWvFpu-100">
          <mxGeometry y="30" width="160" height="30" as="geometry" />
        </mxCell>
        <mxCell id="0v92rCCNr9GchGNWvFpu-102" value="Эмоциональный стресс" style="text;strokeColor=none;fillColor=none;align=left;verticalAlign=middle;spacingLeft=4;spacingRight=4;overflow=hidden;points=[[0,0.5],[1,0.5]];portConstraint=eastwest;rotatable=0;whiteSpace=wrap;html=1;fontSize=13;" vertex="1" parent="0v92rCCNr9GchGNWvFpu-100">
          <mxGeometry y="60" width="160" height="30" as="geometry" />
        </mxCell>
        <mxCell id="0v92rCCNr9GchGNWvFpu-103" value="" style="curved=1;endArrow=classic;html=1;rounded=0;exitX=0.268;exitY=0.934;exitDx=0;exitDy=0;exitPerimeter=0;entryX=0.428;entryY=-0.017;entryDx=0;entryDy=0;entryPerimeter=0;" edge="1" parent="1" source="0v92rCCNr9GchGNWvFpu-9" target="0v92rCCNr9GchGNWvFpu-96">
          <mxGeometry width="50" height="50" relative="1" as="geometry">
            <mxPoint x="1330" y="460" as="sourcePoint" />
            <mxPoint x="1380" y="410" as="targetPoint" />
            <Array as="points">
              <mxPoint x="1450" y="250" />
              <mxPoint x="1480" y="270" />
            </Array>
          </mxGeometry>
        </mxCell>
        <mxCell id="0v92rCCNr9GchGNWvFpu-104" value="" style="curved=1;endArrow=classic;html=1;rounded=0;exitX=0.5;exitY=1;exitDx=0;exitDy=0;entryX=0.5;entryY=0;entryDx=0;entryDy=0;" edge="1" parent="1" source="0v92rCCNr9GchGNWvFpu-9" target="0v92rCCNr9GchGNWvFpu-100">
          <mxGeometry width="50" height="50" relative="1" as="geometry">
            <mxPoint x="1330" y="460" as="sourcePoint" />
            <mxPoint x="1380" y="410" as="targetPoint" />
            <Array as="points">
              <mxPoint x="1610" y="280" />
              <mxPoint x="1550" y="350" />
            </Array>
          </mxGeometry>
        </mxCell>
        <mxCell id="0v92rCCNr9GchGNWvFpu-105" value="Культурные различия" style="rounded=1;whiteSpace=wrap;html=1;fontSize=14;" vertex="1" parent="1">
          <mxGeometry x="1630" y="365" width="120" height="60" as="geometry" />
        </mxCell>
        <mxCell id="0v92rCCNr9GchGNWvFpu-106" value="Правовые аспекты" style="rounded=1;whiteSpace=wrap;html=1;fontSize=14;" vertex="1" parent="1">
          <mxGeometry x="1790" y="330" width="120" height="60" as="geometry" />
        </mxCell>
        <mxCell id="0v92rCCNr9GchGNWvFpu-107" value="" style="curved=1;endArrow=classic;html=1;rounded=0;exitX=0.978;exitY=0.376;exitDx=0;exitDy=0;exitPerimeter=0;entryX=0.464;entryY=0.019;entryDx=0;entryDy=0;entryPerimeter=0;" edge="1" parent="1" source="0v92rCCNr9GchGNWvFpu-1" target="0v92rCCNr9GchGNWvFpu-10">
          <mxGeometry width="50" height="50" relative="1" as="geometry">
            <mxPoint x="1440" y="350" as="sourcePoint" />
            <mxPoint x="1490" y="300" as="targetPoint" />
            <Array as="points">
              <mxPoint x="1290" y="30" />
              <mxPoint x="1340" y="110" />
              <mxPoint x="1500" y="90" />
              <mxPoint x="1680" y="80" />
            </Array>
          </mxGeometry>
        </mxCell>
        <mxCell id="0v92rCCNr9GchGNWvFpu-108" value="" style="curved=1;endArrow=classic;html=1;rounded=0;exitX=0.295;exitY=0.948;exitDx=0;exitDy=0;exitPerimeter=0;entryX=0.5;entryY=0;entryDx=0;entryDy=0;" edge="1" parent="1" source="0v92rCCNr9GchGNWvFpu-10" target="0v92rCCNr9GchGNWvFpu-105">
          <mxGeometry width="50" height="50" relative="1" as="geometry">
            <mxPoint x="1530" y="430" as="sourcePoint" />
            <mxPoint x="1580" y="380" as="targetPoint" />
            <Array as="points">
              <mxPoint x="1680" y="270" />
              <mxPoint x="1640" y="320" />
            </Array>
          </mxGeometry>
        </mxCell>
        <mxCell id="0v92rCCNr9GchGNWvFpu-109" value="" style="curved=1;endArrow=classic;html=1;rounded=0;exitX=0.666;exitY=0.948;exitDx=0;exitDy=0;exitPerimeter=0;entryX=0.5;entryY=0;entryDx=0;entryDy=0;" edge="1" parent="1" source="0v92rCCNr9GchGNWvFpu-10" target="0v92rCCNr9GchGNWvFpu-106">
          <mxGeometry width="50" height="50" relative="1" as="geometry">
            <mxPoint x="1530" y="430" as="sourcePoint" />
            <mxPoint x="1580" y="380" as="targetPoint" />
            <Array as="points">
              <mxPoint x="1880" y="270" />
            </Array>
          </mxGeometry>
        </mxCell>
      </root>
    </mxGraphModel>
  </diagram>
</mxfile>
